<svg xmlns="http://www.w3.org/2000/svg" viewBox="0 0 100 100">
  <g transform="translate(100,0) scale(-1,1)">
    <path d="M93.03,57.468c-5.889,10.05-20.514,10.896-20.514,10.896s-0.902-1.748-1.309-2.832l-0.771-0.386  c23.772-6.785,24.672-33.005,13.662-42.388c-4.062,7.987-19.039,22.027-28.787,25.852c-0.084-0.102-0.627-0.838-0.965-1.312  c9.088-3.316,21.512-19.395,21.512-19.395c-0.254-4.84-5.107-11.539-8.646-12.994c-1.843,10.899-7.956,23.155-15.945,28.632  c-3.621-4.131-9.375-9.681-15.113-10.967c-8.632-1.971-14.236,4.902-14.326,13.6c-1.73-2.01-3.931-3.556-6.686-4.701  c2.335-1.237,3.928-5.704-0.001-8.528c0,0-4.268,3.062-0.721,8.254c-0.713-0.271-1.452-0.523-2.235-0.747  c-0.495-0.78-2.79-3.69-7.977-0.533c4.32,3.822,6.964,1.89,7.796,1.043c0.847,0.24,1.642,0.515,2.405,0.812  c-4.914-0.388-6.576,4.434-5.301,6.767c6.277-1.218,5.649-6.024,5.534-6.678c1.526,0.613,2.892,1.341,4.093,2.209  c-4.92,0.427-5.761,5.464-4.115,7.554c5.588-2.094,4.726-6.271,4.405-7.328c3.967,3.005,6.165,7.547,7.018,14.189l0.537-0.069  c-0.659-5.128-2.102-9.036-4.513-11.972c0.616-0.183,2.436-0.571,5.404,0.105c8.732,1.962,4.079,15.686,13.404,24.812  c9.504,9.3,27.82,7.783,27.82,7.783s7.494,0.021,12.031,7.709C95.169,80.189,95.522,64.693,93.03,57.468z M33.783,41.419  c-1.218,0-2.217-0.98-2.217-2.199c0-1.219,0.999-2.235,2.217-2.235c1.219,0,2.201,1.016,2.201,2.235  C35.984,40.439,35.002,41.419,33.783,41.419z"/>
  </g>
</svg>